<svg width="388" height="153" viewBox="0 0 388 153" fill="none" xmlns="http://www.w3.org/2000/svg">
<g clip-path="url(#clip0_408_28)">
<path d="M61.2264 92.6626C60.8865 92.6783 60.5499 92.5886 60.2624 92.4058C59.9749 92.2229 59.7502 91.9556 59.6189 91.6402C59.4877 91.3248 59.4561 90.9764 59.5284 90.6424C59.6008 90.3083 59.7736 90.0047 60.0235 89.7726C60.0654 89.6055 60.0954 89.4855 60.1373 89.3184C59.8119 88.4881 59.2472 87.7744 58.5154 87.2686C57.7837 86.7629 56.9183 86.4882 56.0301 86.4798C55.1419 86.4714 54.2715 86.7296 53.5304 87.2214C52.7893 87.7132 52.2113 88.4161 51.8704 89.2401C49.9033 93.8655 47.3575 98.654 48.6236 103.749C40.2606 85.9428 43.1047 63.794 55.4639 48.5666C58.8802 46.6761 61.6491 43.3172 62.37 39.4171C60.6793 39.9926 58.5713 38.611 59.8425 36.8219C60.3935 36.1381 60.9499 35.4596 61.5008 34.7758C55.0783 27.9044 47.426 38.7038 54.4953 47.9781C52.1828 50.8909 50.1796 54.0386 48.5186 57.3698C48.9022 53.8325 48.4443 50.2543 47.1828 46.9294C45.9042 43.8307 43.5077 41.221 41.3973 38.5422C38.8313 35.2782 33.5502 36.7841 33.2049 40.9261C35.5729 41.7081 35.8806 45.1445 33.1718 45.6148C33.8813 53.3203 38.8923 60.4017 45.794 63.781C43.2453 70.9652 42.25 78.6126 42.8746 86.2135C41.6564 77.3303 32.1645 75.1746 25.5302 71.6439C25.1079 71.3719 24.616 71.2292 24.1144 71.2332C23.6128 71.2373 23.1232 71.3879 22.7053 71.6667C22.2875 71.9455 21.9594 72.3404 21.7612 72.8033C21.5629 73.2662 21.5031 73.7771 21.5889 74.2736C22.5046 74.6476 23.381 75.1121 24.2053 75.6602C24.5915 75.9211 24.888 76.2956 25.054 76.7324C25.2201 77.1692 25.2476 77.6469 25.1328 78.1C25.0181 78.5531 24.7666 78.9595 24.4129 79.2634C24.0592 79.5673 23.6206 79.7538 23.1572 79.7975C26.5014 88.1122 35.1473 93.6956 44.0272 93.6642C44.8806 97.3895 46.117 101.016 47.7166 104.484H60.8962C60.9434 104.337 60.9859 104.185 61.0284 104.038C59.8085 104.115 58.5838 104.042 57.3816 103.82C60.6092 99.9808 63.1052 98.0222 61.2268 92.6628L61.2264 92.6626Z" fill="#F2F2F2"/>
<path d="M332.289 92.6626C332.629 92.6783 332.966 92.5886 333.253 92.4058C333.541 92.2229 333.765 91.9556 333.897 91.6402C334.028 91.3248 334.059 90.9764 333.987 90.6424C333.915 90.3083 333.742 90.0047 333.492 89.7726C333.45 89.6055 333.42 89.4855 333.378 89.3184C333.704 88.4881 334.268 87.7744 335 87.2686C335.732 86.7629 336.597 86.4882 337.485 86.4798C338.374 86.4714 339.244 86.7296 339.985 87.2214C340.726 87.7132 341.304 88.4161 341.645 89.2401C343.612 93.8655 346.158 98.654 344.892 103.749C353.255 85.9428 350.411 63.794 338.052 48.5666C334.635 46.6761 331.866 43.3172 331.146 39.4171C332.836 39.9926 334.944 38.611 333.673 36.8219C333.122 36.1381 332.566 35.4596 332.015 34.7758C338.437 27.9044 346.09 38.7038 339.02 47.9781C341.333 50.8909 343.336 54.0386 344.997 57.3698C344.613 53.8325 345.071 50.2543 346.333 46.9294C347.611 43.8307 350.008 41.221 352.118 38.5422C354.684 35.2782 359.965 36.7841 360.311 40.9261C357.943 41.7081 357.635 45.1445 360.344 45.6148C359.634 53.3203 354.623 60.4017 347.722 63.781C350.27 70.9652 351.266 78.6126 350.641 86.2135C351.859 77.3303 361.351 75.1746 367.985 71.6439C368.408 71.3719 368.9 71.2292 369.401 71.2332C369.903 71.2373 370.392 71.3879 370.81 71.6667C371.228 71.9455 371.556 72.3404 371.754 72.8033C371.953 73.2662 372.012 73.7771 371.927 74.2736C371.011 74.6476 370.135 75.1121 369.31 75.6602C368.924 75.9211 368.628 76.2956 368.461 76.7324C368.295 77.1692 368.268 77.6469 368.383 78.1C368.497 78.5531 368.749 78.9595 369.103 79.2634C369.456 79.5673 369.895 79.7538 370.358 79.7975C367.014 88.1122 358.368 93.6956 349.488 93.6642C348.635 97.3895 347.398 101.016 345.799 104.484H332.619C332.572 104.337 332.53 104.185 332.487 104.038C333.707 104.115 334.932 104.042 336.134 103.82C332.906 99.9808 330.41 98.0222 332.289 92.6628L332.289 92.6626Z" fill="#F2F2F2"/>
<path d="M2.43296e-06 104.828C-0.000212266 104.9 0.0137848 104.972 0.0411811 105.039C0.0685774 105.105 0.108838 105.166 0.159643 105.217C0.210447 105.268 0.270792 105.308 0.337212 105.336C0.403632 105.364 0.474813 105.378 0.546659 105.377H387.453C387.598 105.377 387.737 105.32 387.84 105.217C387.942 105.114 388 104.974 388 104.828C388 104.683 387.942 104.543 387.84 104.44C387.737 104.337 387.598 104.279 387.453 104.279H0.546631C0.474788 104.279 0.403614 104.293 0.337198 104.32C0.270783 104.348 0.210437 104.388 0.159636 104.439C0.108834 104.49 0.0685768 104.551 0.0411811 104.618C0.0137855 104.685 -0.0002092 104.756 2.43296e-06 104.828Z" fill="#CCCCCC"/>
<path d="M68.2154 97.2037C68.032 94.5054 68.0311 91.9297 67.9785 89.9434C67.8714 85.898 76.556 86.1866 81.2258 86.0618L98.1818 85.2543C102.852 85.1295 106.738 88.3192 106.845 92.3646C106.952 96.41 103.24 99.8027 98.5703 99.9275C91.7111 105.909 86.3908 106.2 76.9817 105.8C74.7232 105.703 72.5798 104.772 70.9621 103.186C69.3445 101.6 68.3664 99.4695 68.2154 97.2037V97.2037Z" fill="#2F2E41"/>
<path d="M107.204 143.668L112.062 144.466L117.436 126.02L110.266 124.844L107.204 143.668Z" fill="#FFB6B6"/>
<path d="M109.134 105.206C100.077 107.444 93.3883 104.924 87.8795 105.251C84.7481 99.9424 74.7523 93.1999 80.2062 90.3618C83.2435 88.7813 114.119 85.1378 118.173 89.3429C123.88 95.2638 123.082 106.033 121.193 114.566C121.142 114.794 121.091 115.02 121.039 115.244C120.944 115.659 120.846 116.067 120.746 116.468C120.62 116.975 119.751 116.966 119.621 117.45C119.438 118.131 119.993 119.293 119.809 119.92C119.492 120.996 118.535 122.007 118.887 122.863C119.856 125.225 117.855 127.062 117.324 127.14L109.975 125.295C109.456 125.172 108.238 123.876 110.185 122.738C110.736 122.416 110.27 121.362 110.306 120.553C110.328 120.056 110.348 119.532 110.363 118.988C110.383 118.264 110.396 117.503 110.398 116.719C110.405 112.855 110.136 108.444 109.134 105.206Z" fill="#2F2E41"/>
<path d="M107.63 136.815L114.834 138.298L114.021 141.349L119.515 147.84C119.787 148.16 119.949 148.56 119.978 148.979C120.008 149.399 119.903 149.817 119.679 150.173C119.455 150.529 119.124 150.803 118.734 150.957C118.344 151.11 117.915 151.134 117.511 151.025L109.069 148.754L108.419 145.344L107.046 148.21L103.863 147.354L107.63 136.815Z" fill="#2F2E41"/>
<path d="M53.3994 111.55L53.8197 116.477L72.9375 117.193L72.3169 109.921L53.3994 111.55Z" fill="#FFB6B6"/>
<path d="M99.9079 101.748C91.5527 98.6738 88.4286 91.1814 85.7429 83.3188C90.099 78.9686 96.0956 72.4462 100.17 77.0633C102.44 79.6345 120.497 101.688 117.431 106.666C112.715 114.324 97.3233 116.679 85.7201 117.335C85.0105 117.375 84.3163 117.409 83.6372 117.437C83.0137 117.463 82.4057 117.484 81.8134 117.501C79.4167 117.571 76.8909 116.454 75.6497 117.555C73.4135 119.538 71.9224 118.582 71.8488 117.45L71.3895 109.605C71.0548 108.343 74.5762 107.285 75.983 108.682C76.9937 109.686 76.5623 108.545 79.2152 107.937C85.6282 106.47 94.4985 104.19 99.9079 101.748Z" fill="#2F2E41"/>
<path d="M60.117 110.286L60.4509 117.666L57.3064 117.621L52.3882 124.562C52.1453 124.905 51.7997 125.161 51.4019 125.292C51.004 125.424 50.5746 125.424 50.1765 125.293C49.7784 125.162 49.4324 124.907 49.189 124.565C48.9456 124.222 48.8175 123.811 48.8234 123.39L48.9474 114.612L52.0792 113.143L48.9771 112.508L49.0238 109.198L60.117 110.286Z" fill="#2F2E41"/>
<path d="M71.2111 92.0563C71.1905 92.0196 71.1802 91.9778 71.1815 91.9356C71.1828 91.8934 71.1955 91.8523 71.2184 91.8169C68.3969 91.7119 65.5962 92.3607 66.3362 89.7618C66.4419 89.3905 68.9812 86.6756 69.1292 86.2686C69.2577 85.9153 68.4779 84.1403 68.6329 83.7627C68.9367 83.0228 70.2095 83.6476 70.587 82.8284C70.7198 82.5402 69.8721 81.7519 70.011 81.4554C70.1416 81.1765 71.2584 81.3899 71.3929 81.1044C73.9205 75.74 77.0205 69.2675 76.2053 63.921C75.1722 57.1456 75.3294 47.5311 75.1295 41.4507C75.0908 40.2436 75.4541 39.0581 76.1618 38.0818C76.8695 37.1055 77.8813 36.3944 79.0367 36.061C80.88 35.5226 83.0899 34.5736 84.5566 32.9311C84.9403 32.5014 84.9867 33.272 85.0356 32.2242C85.0953 30.948 85.1572 29.6283 85.8354 28.9469L85.8648 28.9175L85.9043 28.904C88.7594 27.9486 93.5804 28.5666 95.0138 28.8995L95.076 28.9141L95.1146 28.9653C95.7072 29.7508 95.6745 31.0075 95.643 32.2228C95.6145 33.3163 95.5877 32.5889 96.0701 32.9004C96.4433 33.1416 96.802 33.3721 97.1461 33.5921C101.39 36.3112 103.52 37.6763 105.08 42.118C105.573 43.4087 105.759 44.7974 105.622 46.1731C105.065 50.6177 102.701 83.1972 101.754 84.3331C101.508 84.6279 102.147 85.14 102.411 85.5224C102.791 86.0712 101.585 86.5449 101.397 86.9075C101.268 87.1546 100.936 87.2698 100.351 87.2698C98.1463 87.2698 71.8528 93.2609 71.2111 92.0563Z" fill="#3F3D56"/>
<path d="M89.6126 73.819C90.434 74.337 88.8264 75.5831 87.8566 75.5831C87.3909 75.5831 86.9442 75.3972 86.6149 75.0664C86.2856 74.7355 86.1006 74.2868 86.1006 73.819C86.1006 72.8447 87.1886 70.5295 87.6371 71.3933C87.7596 71.6292 88.5408 73.143 89.6126 73.819Z" fill="#317DE5"/>
<path d="M92.4662 73.819C93.2875 74.337 91.68 75.5831 90.7101 75.5831C90.2444 75.5831 89.7978 75.3972 89.4684 75.0664C89.1391 74.7355 88.9541 74.2868 88.9541 73.819C88.9541 72.8447 90.0421 70.5295 90.4906 71.3933C90.6131 71.6292 91.3944 73.143 92.4662 73.819Z" fill="#317DE5"/>
<path d="M91.1026 73.423C90.1735 73.1435 91.3926 71.5123 92.3273 71.2527C92.5496 71.191 92.7818 71.1739 93.0107 71.2023C93.2395 71.2307 93.4606 71.3042 93.6612 71.4184C93.8618 71.5327 94.038 71.6855 94.1799 71.8682C94.3217 72.0509 94.4263 72.2598 94.4877 72.4831C94.7461 73.4222 94.3113 75.9449 93.6499 75.2323C93.4694 75.0378 92.3149 73.7877 91.1026 73.423Z" fill="#317DE5"/>
<path d="M102.124 73.819C102.946 74.337 101.338 75.5831 100.368 75.5831C99.9026 75.5831 99.4559 75.3972 99.1266 75.0664C98.7973 74.7355 98.6123 74.2868 98.6123 73.819C98.6123 72.8447 99.7003 70.5295 100.149 71.3933C100.271 71.6292 101.053 73.143 102.124 73.819Z" fill="#317DE5"/>
<path d="M104.978 73.819C105.799 74.337 104.192 75.5831 103.222 75.5831C102.756 75.5831 102.309 75.3972 101.98 75.0664C101.651 74.7355 101.466 74.2868 101.466 73.819C101.466 72.8447 102.554 70.5295 103.002 71.3933C103.125 71.6292 103.906 73.143 104.978 73.819Z" fill="#317DE5"/>
<path d="M103.614 73.423C102.685 73.1436 103.904 71.5123 104.839 71.2527C105.288 71.1281 105.768 71.1877 106.173 71.4184C106.578 71.6492 106.875 72.0322 106.999 72.4831C107.258 73.4222 106.823 75.9449 106.162 75.2323C105.981 75.0378 104.827 73.7877 103.614 73.423Z" fill="#317DE5"/>
<path d="M83.4199 73.423C82.4909 73.1436 83.7099 71.5123 84.6447 71.2527C85.0936 71.1281 85.5734 71.1877 85.9786 71.4184C86.3837 71.6492 86.681 72.0322 86.8051 72.4831C87.0634 73.4222 86.6287 75.9449 85.9673 75.2323C85.7867 75.0378 84.6323 73.7877 83.4199 73.423Z" fill="#317DE5"/>
<path d="M95.9069 75.3084C95.5142 76.1992 94.0564 74.7793 93.9175 73.815C93.8508 73.352 93.97 72.8813 94.2488 72.5065C94.5275 72.1317 94.9431 71.8835 95.404 71.8165C96.3639 71.677 98.8005 72.4273 98.0137 72.9969C97.7988 73.1524 96.4193 74.1459 95.9069 75.3084Z" fill="#317DE5"/>
<path d="M99.2735 72.3541C99.5074 71.4085 101.187 72.5546 101.489 73.4803C101.561 73.7004 101.589 73.9326 101.572 74.1636C101.555 74.3946 101.492 74.6199 101.388 74.8266C101.284 75.0334 101.14 75.2175 100.965 75.3684C100.79 75.5194 100.588 75.6343 100.368 75.7065C99.4469 76.0102 96.918 75.6934 97.5952 74.996C97.7801 74.8056 98.9683 73.5879 99.2735 72.3541Z" fill="#317DE5"/>
<path d="M97.9571 71.0311C98.191 70.0855 99.8707 71.2316 100.173 72.1573C100.245 72.3774 100.273 72.6096 100.256 72.8406C100.238 73.0716 100.176 73.2969 100.071 73.5036C99.9674 73.7104 99.8238 73.8945 99.6488 74.0454C99.4739 74.1964 99.2711 74.3113 99.052 74.3835C98.1305 74.6872 95.6016 74.3705 96.2788 73.673C96.4637 73.4826 97.6519 72.2649 97.9571 71.0311Z" fill="#317DE5"/>
<path d="M81.256 79.8751L83.3188 86.632C83.5351 87.8023 84.1522 88.8596 85.0632 89.6207C85.9742 90.3817 87.1216 90.7984 88.3065 90.7986H102.902C104.105 90.8021 105.27 90.3744 106.187 89.5923C107.105 88.8102 107.715 87.725 107.907 86.5317L107.912 86.5095L109.739 79.7828C109.849 79.1021 109.811 78.4056 109.627 77.7413C109.442 77.077 109.117 76.461 108.672 75.9357C108.227 75.4104 107.674 74.9885 107.051 74.6992C106.428 74.4099 105.75 74.26 105.063 74.26H85.916C85.2218 74.26 84.5359 74.4133 83.9072 74.7091C83.2784 75.0048 82.722 75.4358 82.2774 75.9715C81.8328 76.5072 81.5109 77.1346 81.3344 77.8092C81.1579 78.4837 81.1311 79.189 81.256 79.8751V79.8751Z" fill="#CCCCCC"/>
<path d="M94.2068 67.4899L106.862 64.2661L108.829 70.8073C108.829 70.8073 95.214 71.8201 94.7051 71.8248C94.3246 72.3658 93.7895 72.7781 93.1707 73.007C92.5519 73.2359 91.8786 73.2706 91.2397 73.1067C90.6007 72.9428 90.0264 72.5878 89.5927 72.0889C89.1589 71.5899 88.8862 70.9704 88.8106 70.3123C88.7349 69.6542 88.8599 68.9886 89.169 68.4034C89.4781 67.8183 89.9568 67.3412 90.5417 67.0353C91.1266 66.7294 91.7902 66.609 92.4446 66.6902C93.0991 66.7714 93.7135 67.0503 94.2068 67.4899V67.4899Z" fill="#FFB6B6"/>
<path d="M102.651 37.8269C111.674 42.6707 112.872 53.4689 118.408 62.9586C118.892 67.3469 118.272 71.2032 113.878 71.2811L111.812 71.7644L110.309 71.3637L109.515 72.2259L107.834 71.421L105.892 71.7945L101.865 71.8877L104.406 64.8187L108.028 62.7512L103.746 52.3459L102.651 37.8269Z" fill="#3F3D56"/>
<path d="M75.0764 20.127C76.5486 18.2034 75.506 15.4517 75.4585 13.0136C75.3699 8.46433 79.3699 4.46044 83.7137 3.8683C88.0576 3.27617 92.3881 5.56221 95.2504 8.95249C98.0563 12.276 100.161 14.0179 101.68 18.1636C102.19 19.5538 102.175 23.511 101.998 24.999C101.822 26.487 100.701 27.9854 99.2639 27.9972C99.3369 28.2862 99.3296 28.5897 99.2428 28.8748C99.1559 29.1599 98.9929 29.4156 98.7715 29.6141C98.55 29.8126 98.2786 29.9463 97.9868 30.0006C97.695 30.0549 97.3939 30.0277 97.1164 29.922C94.615 28.8266 89.5022 29.1408 89.5022 29.1408C84.9677 28.391 80.4333 27.6412 75.8988 26.8915C74.737 26.6993 73.5332 26.4914 72.6444 25.6229C72.3967 25.391 72.2018 25.108 72.0733 24.7933C71.9447 24.4787 71.8854 24.1398 71.8995 23.7999C72.0174 22.0373 74.0614 21.4533 75.0764 20.127Z" fill="#2F2E41"/>
<path d="M90.0298 28.6345C94.9861 28.6345 99.004 24.5981 99.004 19.619C99.004 14.6399 94.9861 10.6035 90.0298 10.6035C85.0735 10.6035 81.0557 14.6399 81.0557 19.619C81.0557 24.5981 85.0735 28.6345 90.0298 28.6345Z" fill="#FFB6B6"/>
<path d="M95.4487 17.9384L83.7075 15.0824C83.2017 14.962 82.7626 14.6479 82.4839 14.2071C82.2051 13.7663 82.1087 13.2335 82.2151 12.7223C82.4603 11.6052 82.9225 10.5476 83.5751 9.61008C84.2278 8.67259 85.0581 7.8736 86.0185 7.25888C86.9789 6.64416 88.0505 6.22578 89.1721 6.02768C90.2937 5.82957 91.4431 5.85563 92.5547 6.10437L96.0317 6.88665C97.1503 7.13831 98.2086 7.60886 99.1462 8.27141C100.084 8.93396 100.882 9.77556 101.496 10.7481C102.11 11.7207 102.527 12.8052 102.724 13.9397C102.92 15.0743 102.893 16.2366 102.642 17.3603V17.3603L102.569 17.3906C100.378 18.3017 97.9608 18.5093 95.6481 17.985C95.5817 17.9701 95.515 17.9545 95.4487 17.9384Z" fill="#2F2E41"/>
<path d="M83.8387 26.7517L81.6539 22.2696C81.4007 21.863 81.2833 21.3859 81.3187 20.9076C81.4063 20.4395 81.9529 20.0402 82.3598 20.2847C82.7374 20.5115 86.4058 15.1257 86.8348 15.2235C87.2796 15.3249 87.5578 14.7616 87.6631 14.3157C88.0621 12.6265 86.2858 14.1372 86.1965 12.4033C86.1071 10.6694 84.0278 11.6751 82.6679 10.6038C81.3079 9.53244 79.1655 9.39807 77.911 10.5922C76.9808 11.4776 76.7047 12.8378 76.518 14.1113C76.0849 17.0667 75.8768 20.051 75.8957 23.0382C75.9004 23.772 75.965 24.6053 76.5348 25.0645C76.8558 25.2839 77.2228 25.4263 77.6073 25.4807L82.2807 26.5079" fill="#2F2E41"/>
<path d="M81.1725 8.8867C83.615 8.8867 85.595 6.89756 85.595 4.44384C85.595 1.99011 83.615 0.000976562 81.1725 0.000976562C78.73 0.000976562 76.75 1.99011 76.75 4.44384C76.75 6.89756 78.73 8.8867 81.1725 8.8867Z" fill="#2F2E41"/>
<path d="M152.941 63.8865V103.436C152.942 103.94 153.141 104.423 153.496 104.78C153.851 105.136 154.332 105.336 154.834 105.337H213.173C213.675 105.336 214.156 105.136 214.511 104.78C214.865 104.423 215.065 103.94 215.065 103.436V63.8865C215.064 63.3829 214.864 62.9004 214.51 62.5445C214.155 62.1886 213.674 61.9884 213.173 61.9878H154.834C154.332 61.9884 153.852 62.1886 153.497 62.5445C153.142 62.9004 152.943 63.3829 152.941 63.8865V63.8865Z" fill="#3F3D56"/>
<path d="M154.311 64.3786V102.948C154.311 103.217 154.418 103.476 154.607 103.666C154.797 103.856 155.054 103.964 155.322 103.964H212.688C212.956 103.964 213.213 103.856 213.403 103.666C213.592 103.476 213.699 103.217 213.699 102.948V64.3786C213.699 64.109 213.593 63.8504 213.403 63.6595C213.214 63.4687 212.956 63.3612 212.688 63.3606H155.322C155.053 63.3612 154.796 63.4687 154.607 63.6595C154.417 63.8504 154.311 64.109 154.311 64.3786V64.3786Z" fill="#317DE5"/>
<path d="M151.721 111.149C151.828 111.284 151.964 111.392 152.119 111.467C152.273 111.541 152.443 111.579 152.614 111.578H215.082C215.253 111.578 215.422 111.54 215.576 111.466C215.73 111.392 215.866 111.284 215.973 111.151C216.081 111.018 216.158 110.862 216.198 110.695C216.238 110.528 216.241 110.355 216.206 110.187L215.236 105.559C215.196 105.371 215.109 105.195 214.984 105.049C214.859 104.902 214.7 104.789 214.52 104.721C214.39 104.669 214.252 104.643 214.112 104.643H153.58C153.44 104.643 153.302 104.669 153.172 104.721C152.993 104.789 152.833 104.902 152.708 105.049C152.583 105.195 152.496 105.371 152.456 105.559L151.487 110.187C151.452 110.355 151.455 110.528 151.496 110.695C151.536 110.861 151.613 111.016 151.721 111.149V111.149Z" fill="#2F2E41"/>
<path d="M211.969 106.636H213.445C213.569 106.636 213.669 106.536 213.669 106.411V105.702C213.669 105.578 213.569 105.477 213.445 105.477H211.969C211.845 105.477 211.745 105.578 211.745 105.702V106.411C211.745 106.536 211.845 106.636 211.969 106.636Z" fill="#3F3D56"/>
<path d="M208.122 106.636H209.597C209.721 106.636 209.821 106.536 209.821 106.411V105.702C209.821 105.578 209.721 105.477 209.597 105.477H208.122C207.998 105.477 207.897 105.578 207.897 105.702V106.411C207.897 106.536 207.998 106.636 208.122 106.636Z" fill="#3F3D56"/>
<path d="M204.273 106.636H205.748C205.872 106.636 205.973 106.536 205.973 106.411V105.702C205.973 105.578 205.872 105.477 205.748 105.477H204.273C204.149 105.477 204.049 105.578 204.049 105.702V106.411C204.049 106.536 204.149 106.636 204.273 106.636Z" fill="#3F3D56"/>
<path d="M200.425 106.636H201.901C202.025 106.636 202.125 106.536 202.125 106.411V105.702C202.125 105.578 202.025 105.477 201.901 105.477H200.425C200.301 105.477 200.201 105.578 200.201 105.702V106.411C200.201 106.536 200.301 106.636 200.425 106.636Z" fill="#3F3D56"/>
<path d="M196.578 106.636H198.053C198.177 106.636 198.277 106.536 198.277 106.411V105.702C198.277 105.578 198.177 105.477 198.053 105.477H196.578C196.454 105.477 196.353 105.578 196.353 105.702V106.411C196.353 106.536 196.454 106.636 196.578 106.636Z" fill="#3F3D56"/>
<path d="M192.729 106.636H194.204C194.328 106.636 194.429 106.536 194.429 106.411V105.702C194.429 105.578 194.328 105.477 194.204 105.477H192.729C192.605 105.477 192.505 105.578 192.505 105.702V106.411C192.505 106.536 192.605 106.636 192.729 106.636Z" fill="#3F3D56"/>
<path d="M188.881 106.636H190.357C190.481 106.636 190.581 106.536 190.581 106.411V105.702C190.581 105.578 190.481 105.477 190.357 105.477H188.881C188.757 105.477 188.657 105.578 188.657 105.702V106.411C188.657 106.536 188.757 106.636 188.881 106.636Z" fill="#3F3D56"/>
<path d="M185.034 106.636H186.509C186.633 106.636 186.733 106.536 186.733 106.411V105.702C186.733 105.578 186.633 105.477 186.509 105.477H185.034C184.91 105.477 184.809 105.578 184.809 105.702V106.411C184.809 106.536 184.91 106.636 185.034 106.636Z" fill="#3F3D56"/>
<path d="M181.185 106.636H182.661C182.784 106.636 182.885 106.536 182.885 106.411V105.702C182.885 105.578 182.784 105.477 182.661 105.477H181.185C181.061 105.477 180.961 105.578 180.961 105.702V106.411C180.961 106.536 181.061 106.636 181.185 106.636Z" fill="#3F3D56"/>
<path d="M177.337 106.636H178.813C178.937 106.636 179.037 106.536 179.037 106.411V105.702C179.037 105.578 178.937 105.477 178.813 105.477H177.337C177.214 105.477 177.113 105.578 177.113 105.702V106.411C177.113 106.536 177.214 106.636 177.337 106.636Z" fill="#3F3D56"/>
<path d="M173.49 106.636H174.965C175.089 106.636 175.189 106.536 175.189 106.411V105.702C175.189 105.578 175.089 105.477 174.965 105.477H173.49C173.366 105.477 173.265 105.578 173.265 105.702V106.411C173.265 106.536 173.366 106.636 173.49 106.636Z" fill="#3F3D56"/>
<path d="M169.641 106.636H171.117C171.24 106.636 171.341 106.536 171.341 106.411V105.702C171.341 105.578 171.24 105.477 171.117 105.477H169.641C169.517 105.477 169.417 105.578 169.417 105.702V106.411C169.417 106.536 169.517 106.636 169.641 106.636Z" fill="#3F3D56"/>
<path d="M165.793 106.636H167.269C167.393 106.636 167.493 106.536 167.493 106.411V105.702C167.493 105.578 167.393 105.477 167.269 105.477H165.793C165.67 105.477 165.569 105.578 165.569 105.702V106.411C165.569 106.536 165.67 106.636 165.793 106.636Z" fill="#3F3D56"/>
<path d="M161.946 106.636H163.421C163.545 106.636 163.646 106.536 163.646 106.411V105.702C163.646 105.578 163.545 105.477 163.421 105.477H161.946C161.822 105.477 161.722 105.578 161.722 105.702V106.411C161.722 106.536 161.822 106.636 161.946 106.636Z" fill="#3F3D56"/>
<path d="M158.097 106.636H159.573C159.696 106.636 159.797 106.536 159.797 106.411V105.702C159.797 105.578 159.696 105.477 159.573 105.477H158.097C157.973 105.477 157.873 105.578 157.873 105.702V106.411C157.873 106.536 157.973 106.636 158.097 106.636Z" fill="#3F3D56"/>
<path d="M154.249 106.636H155.725C155.849 106.636 155.949 106.536 155.949 106.411V105.702C155.949 105.578 155.849 105.477 155.725 105.477H154.249C154.126 105.477 154.025 105.578 154.025 105.702V106.411C154.025 106.536 154.126 106.636 154.249 106.636Z" fill="#3F3D56"/>
<path d="M212.015 108.569H213.491C213.614 108.569 213.715 108.468 213.715 108.344V107.635C213.715 107.51 213.614 107.409 213.491 107.409H212.015C211.891 107.409 211.791 107.51 211.791 107.635V108.344C211.791 108.468 211.891 108.569 212.015 108.569Z" fill="#3F3D56"/>
<path d="M208.166 108.569H209.642C209.766 108.569 209.866 108.468 209.866 108.344V107.635C209.866 107.51 209.766 107.409 209.642 107.409H208.166C208.043 107.409 207.942 107.51 207.942 107.635V108.344C207.942 108.468 208.043 108.569 208.166 108.569Z" fill="#3F3D56"/>
<path d="M204.319 108.569H205.794C205.918 108.569 206.019 108.468 206.019 108.344V107.635C206.019 107.51 205.918 107.409 205.794 107.409H204.319C204.195 107.409 204.095 107.51 204.095 107.635V108.344C204.095 108.468 204.195 108.569 204.319 108.569Z" fill="#3F3D56"/>
<path d="M200.471 108.569H201.947C202.07 108.569 202.171 108.468 202.171 108.344V107.635C202.171 107.51 202.07 107.409 201.947 107.409H200.471C200.347 107.409 200.247 107.51 200.247 107.635V108.344C200.247 108.468 200.347 108.569 200.471 108.569Z" fill="#3F3D56"/>
<path d="M196.623 108.569H198.098C198.222 108.569 198.322 108.468 198.322 108.344V107.635C198.322 107.51 198.222 107.409 198.098 107.409H196.623C196.499 107.409 196.398 107.51 196.398 107.635V108.344C196.398 108.468 196.499 108.569 196.623 108.569Z" fill="#3F3D56"/>
<path d="M192.775 108.569H194.25C194.374 108.569 194.475 108.468 194.475 108.344V107.635C194.475 107.51 194.374 107.409 194.25 107.409H192.775C192.651 107.409 192.551 107.51 192.551 107.635V108.344C192.551 108.468 192.651 108.569 192.775 108.569Z" fill="#3F3D56"/>
<path d="M188.927 108.569H190.403C190.527 108.569 190.627 108.468 190.627 108.344V107.635C190.627 107.51 190.527 107.409 190.403 107.409H188.927C188.803 107.409 188.703 107.51 188.703 107.635V108.344C188.703 108.468 188.803 108.569 188.927 108.569Z" fill="#3F3D56"/>
<path d="M185.079 108.569H186.554C186.678 108.569 186.778 108.468 186.778 108.344V107.635C186.778 107.51 186.678 107.409 186.554 107.409H185.079C184.955 107.409 184.854 107.51 184.854 107.635V108.344C184.854 108.468 184.955 108.569 185.079 108.569Z" fill="#3F3D56"/>
<path d="M181.231 108.569H182.706C182.83 108.569 182.931 108.468 182.931 108.344V107.635C182.931 107.51 182.83 107.409 182.706 107.409H181.231C181.107 107.409 181.007 107.51 181.007 107.635V108.344C181.007 108.468 181.107 108.569 181.231 108.569Z" fill="#3F3D56"/>
<path d="M177.383 108.569H178.859C178.983 108.569 179.083 108.468 179.083 108.344V107.635C179.083 107.51 178.983 107.409 178.859 107.409H177.383C177.259 107.409 177.159 107.51 177.159 107.635V108.344C177.159 108.468 177.259 108.569 177.383 108.569Z" fill="#3F3D56"/>
<path d="M173.535 108.569H175.01C175.134 108.569 175.234 108.468 175.234 108.344V107.635C175.234 107.51 175.134 107.409 175.01 107.409H173.535C173.411 107.409 173.31 107.51 173.31 107.635V108.344C173.31 108.468 173.411 108.569 173.535 108.569Z" fill="#3F3D56"/>
<path d="M169.687 108.569H171.162C171.286 108.569 171.387 108.468 171.387 108.344V107.635C171.387 107.51 171.286 107.409 171.162 107.409H169.687C169.563 107.409 169.463 107.51 169.463 107.635V108.344C169.463 108.468 169.563 108.569 169.687 108.569Z" fill="#3F3D56"/>
<path d="M165.839 108.569H167.315C167.439 108.569 167.539 108.468 167.539 108.344V107.635C167.539 107.51 167.439 107.409 167.315 107.409H165.839C165.715 107.409 165.615 107.51 165.615 107.635V108.344C165.615 108.468 165.715 108.569 165.839 108.569Z" fill="#3F3D56"/>
<path d="M161.991 108.569H163.466C163.59 108.569 163.69 108.468 163.69 108.344V107.635C163.69 107.51 163.59 107.409 163.466 107.409H161.991C161.867 107.409 161.766 107.51 161.766 107.635V108.344C161.766 108.468 161.867 108.569 161.991 108.569Z" fill="#3F3D56"/>
<path d="M158.143 108.569H159.619C159.742 108.569 159.843 108.468 159.843 108.344V107.635C159.843 107.51 159.742 107.409 159.619 107.409H158.143C158.019 107.409 157.919 107.51 157.919 107.635V108.344C157.919 108.468 158.019 108.569 158.143 108.569Z" fill="#3F3D56"/>
<path d="M154.295 108.569H155.771C155.895 108.569 155.995 108.468 155.995 108.344V107.635C155.995 107.51 155.895 107.409 155.771 107.409H154.295C154.172 107.409 154.071 107.51 154.071 107.635V108.344C154.071 108.468 154.172 108.569 154.295 108.569Z" fill="#3F3D56"/>
<path d="M180.077 110.889H195.02C195.144 110.889 195.244 110.788 195.244 110.663V109.954C195.244 109.83 195.144 109.729 195.02 109.729H180.077C179.953 109.729 179.852 109.83 179.852 109.954V110.663C179.852 110.788 179.953 110.889 180.077 110.889Z" fill="#3F3D56"/>
<path d="M184.125 98.0237C191.736 98.0237 197.906 91.8255 197.906 84.1797C197.906 76.5339 191.736 70.3357 184.125 70.3357C176.514 70.3357 170.345 76.5339 170.345 84.1797C170.345 91.8255 176.514 98.0237 184.125 98.0237Z" fill="white"/>
<path d="M181.032 89.6705C180.852 89.6747 180.674 89.633 180.515 89.5494C180.344 89.4627 180.2 89.3309 180.099 89.1682C179.997 89.0055 179.942 88.8181 179.938 88.6262L179.711 79.7885C179.706 79.5968 179.753 79.4074 179.846 79.2399C179.939 79.0725 180.074 78.9332 180.239 78.8365C180.404 78.7399 180.592 78.6896 180.782 78.6907C180.973 78.6918 181.16 78.7444 181.324 78.843L189.783 83.0455C189.936 83.1381 190.064 83.2683 190.155 83.4239C190.245 83.5795 190.295 83.7556 190.3 83.9357C190.304 84.1158 190.264 84.2942 190.181 84.4543C190.099 84.6144 189.978 84.751 189.829 84.8515L181.597 89.4868C181.43 89.601 181.234 89.6647 181.032 89.6705Z" fill="#317DE5"/>
<path d="M235.429 144.821L231.037 142.854L236.51 124.487L242.991 127.391L235.429 144.821Z" fill="#FFB8B8"/>
<path d="M236.735 141.811L231.983 139.677L231.238 139.342L230.14 142.272L221.984 144.306C221.581 144.406 221.22 144.633 220.954 144.954C220.688 145.275 220.532 145.673 220.507 146.09C220.483 146.506 220.591 146.92 220.818 147.27C221.044 147.62 221.375 147.888 221.764 148.036L229.867 151.107L232.351 148.738L231.809 151.843L234.861 153L237.889 142.331L236.735 141.811Z" fill="#2F2E41"/>
<path d="M243.489 79.3165C244.039 79.6976 244.665 79.9529 245.324 80.0644C245.983 80.1759 246.658 80.141 247.302 79.9621C247.945 79.7832 248.542 79.4646 249.05 79.0288C249.559 78.593 249.965 78.0506 250.242 77.4398L266.41 78.9591L262.441 71.4782L247.696 71.1824C246.644 70.7832 245.482 70.7857 244.432 71.1892C243.381 71.5928 242.515 72.3696 241.996 73.3722C241.477 74.3748 241.343 75.5337 241.618 76.6293C241.893 77.7249 242.559 78.681 243.489 79.3165L243.489 79.3165Z" fill="#FFB6B6"/>
<path d="M259.883 78.8045L282.257 81.3244L282.334 81.2252C282.481 81.0358 297.121 62.2098 299.581 57.7283C301.094 55.0358 301.645 51.9043 301.143 48.8538L301.126 48.7792L301.068 48.7297C299.875 47.7256 298.377 47.1597 296.821 47.1254C295.266 47.0912 293.745 47.5905 292.509 48.5412C286.569 53.163 281.779 59.1086 278.518 65.9086L276.668 69.7788L259.883 71.4418V78.8045Z" fill="#317DE5"/>
<path d="M310.05 90.5162L310.697 91.9814C310.898 93.3297 311.681 91.9883 311.613 93.1318C314.941 95.8865 305.817 114.299 298.961 113.55C295.782 114.553 292.035 114.963 288.119 114.99C287.738 114.993 287.356 114.993 286.973 114.989C286.729 114.986 285.978 114.075 285.733 114.069C284.996 114.053 284.761 114.931 284.019 114.891C283.432 114.86 282.352 115.362 282.258 114.779C282.055 113.522 281.676 113.807 281.228 114.696C280.918 115.313 279.859 114.57 279.179 114.497C275.253 114.073 271.453 113.426 268.168 112.763C266.945 112.519 265.795 112.271 264.737 112.029C262.733 111.576 261.057 111.152 259.843 110.83C258.476 110.471 257.697 110.239 257.697 110.239L247.943 118.211L240.385 134.777C239.803 134.83 233.514 133.166 233.514 133.166C232.844 132.552 232.372 131.75 232.159 130.864C231.947 129.978 232.004 129.048 232.323 128.195C232.708 127.037 235.433 118.48 238.284 111.01C239.13 108.792 240.004 106.541 240.905 104.303C241.642 102.464 242.393 100.633 243.154 98.8268C244.475 95.6954 250.86 94.0066 258.379 93.1208C258.762 93.0771 259.147 93.0334 259.534 92.9919C263.365 92.587 267.431 92.3776 271.232 92.281C273.136 92.2327 274.972 92.2143 276.681 92.212C277.233 92.212 277.77 92.2135 278.291 92.2166H278.293C279.702 92.2235 280.998 92.2442 282.139 92.2672C282.361 92.2718 282.576 92.2787 282.787 92.2833H282.789C282.931 92.2856 283.071 92.2902 283.208 92.2925C285.702 92.3569 287.232 92.4352 287.232 92.4352L287.107 88.0701L287.947 86.8165L288.061 85.9192V85.9169L288.075 85.8042L288.169 85.8019L289.818 85.7697L303.679 85.4982L309.583 85.2468L310.05 90.5162Z" fill="#2F2E41"/>
<path d="M288.973 120.485L287.442 125.063L268.722 121.338L270.982 114.58L288.973 120.485Z" fill="#FFB8B8"/>
<path d="M285.867 119.465L284.205 124.419L283.943 125.196L286.951 126.016L289.743 133.979C289.88 134.373 290.14 134.712 290.483 134.947C290.826 135.182 291.235 135.301 291.65 135.286C292.066 135.271 292.465 135.122 292.79 134.863C293.116 134.604 293.35 134.246 293.459 133.844L295.732 125.448L293.148 123.189L296.276 123.436L297.132 120.274L286.272 118.26L285.867 119.465Z" fill="#2F2E41"/>
<path d="M276.807 115.522C276.595 116.123 277.221 115.296 276.995 115.892C276.122 118.203 274.5 122.139 274.182 122.775C274.057 122.75 250.517 119.46 247.343 118.532L252.237 106.065L252.787 104.667L260.895 107.571L263.672 109.957L269.736 110.738L276.807 115.522Z" fill="#2F2E41"/>
<path d="M292.044 35.4692C298.194 35.4692 303.18 30.4603 303.18 24.2814C303.18 18.1025 298.194 13.0935 292.044 13.0935C285.893 13.0935 280.907 18.1025 280.907 24.2814C280.907 30.4603 285.893 35.4692 292.044 35.4692Z" fill="#FFB6B6"/>
<path d="M249.818 83.8122C250.636 84.3282 249.035 85.5696 248.069 85.5696C247.605 85.5696 247.16 85.3845 246.832 85.0549C246.504 84.7253 246.319 84.2783 246.319 83.8122C246.319 82.8416 247.403 80.5352 247.85 81.3958C247.972 81.6307 248.75 83.1388 249.818 83.8122Z" fill="#317DE5"/>
<path d="M252.661 83.8122C253.479 84.3282 251.878 85.5696 250.911 85.5696C250.448 85.5696 250.003 85.3845 249.674 85.0549C249.346 84.7253 249.162 84.2783 249.162 83.8122C249.162 82.8416 250.246 80.5352 250.693 81.3958C250.815 81.6307 251.593 83.1388 252.661 83.8122Z" fill="#317DE5"/>
<path d="M251.301 83.4177C250.376 83.1393 251.59 81.5142 252.522 81.2556C252.969 81.1315 253.447 81.1909 253.85 81.4207C254.254 81.6506 254.55 82.0321 254.674 82.4814C254.931 83.4169 254.498 85.9301 253.839 85.2202C253.659 85.0263 252.509 83.781 251.301 83.4177Z" fill="#317DE5"/>
<path d="M262.282 83.8122C263.1 84.3282 261.499 85.5696 260.533 85.5696C260.069 85.5696 259.624 85.3845 259.296 85.0549C258.968 84.7253 258.783 84.2783 258.783 83.8122C258.783 82.8416 259.867 80.5352 260.314 81.3958C260.436 81.6307 261.214 83.1388 262.282 83.8122Z" fill="#317DE5"/>
<path d="M265.125 83.8122C265.943 84.3282 264.341 85.5696 263.375 85.5696C262.911 85.5696 262.466 85.3845 262.138 85.0549C261.81 84.7253 261.626 84.2783 261.626 83.8122C261.626 82.8416 262.71 80.5352 263.157 81.3958C263.279 81.6307 264.057 83.1388 265.125 83.8122Z" fill="#317DE5"/>
<path d="M263.766 83.4177C262.841 83.1393 264.055 81.5142 264.986 81.2556C265.434 81.1315 265.912 81.1909 266.315 81.4207C266.719 81.6506 267.015 82.0321 267.139 82.4814C267.396 83.4169 266.963 85.9301 266.304 85.2202C266.124 85.0263 264.974 83.781 263.766 83.4177Z" fill="#317DE5"/>
<path d="M243.648 83.4177C242.723 83.1393 243.937 81.5142 244.868 81.2556C245.315 81.1315 245.793 81.1909 246.197 81.4207C246.601 81.6506 246.897 82.0321 247.02 82.4814C247.278 83.4169 246.845 85.9301 246.186 85.2202C246.006 85.0263 244.856 83.781 243.648 83.4177Z" fill="#317DE5"/>
<path d="M256.089 85.2958C255.697 86.1833 254.245 84.7687 254.107 83.8081C254.074 83.5797 254.086 83.347 254.143 83.1234C254.199 82.8997 254.299 82.6894 254.437 82.5046C254.574 82.3197 254.747 82.1638 254.944 82.0459C255.142 81.9279 255.36 81.8502 255.588 81.8172C256.544 81.6782 258.971 82.4256 258.187 82.9931C257.973 83.148 256.599 84.1378 256.089 85.2958Z" fill="#317DE5"/>
<path d="M259.442 82.3527C259.675 81.4108 261.349 82.5525 261.65 83.4747C261.722 83.694 261.75 83.9253 261.732 84.1554C261.715 84.3855 261.653 84.61 261.549 84.8159C261.445 85.0218 261.302 85.2052 261.128 85.3556C260.954 85.506 260.752 85.6204 260.533 85.6924C259.615 85.995 257.096 85.6794 257.771 84.9846C257.955 84.795 259.138 83.5819 259.442 82.3527Z" fill="#317DE5"/>
<path d="M258.131 81.0349C258.364 80.0929 260.037 81.2346 260.339 82.1568C260.41 82.3761 260.438 82.6074 260.421 82.8375C260.403 83.0676 260.341 83.2921 260.237 83.498C260.134 83.704 259.991 83.8874 259.816 84.0377C259.642 84.1881 259.44 84.3026 259.222 84.3745C258.304 84.6771 255.784 84.3616 256.459 83.6668C256.643 83.4771 257.827 82.264 258.131 81.0349Z" fill="#317DE5"/>
<path d="M249.993 76.8847C249.602 77.7721 248.15 76.3576 248.011 75.397C247.978 75.1686 247.99 74.9359 248.047 74.7123C248.104 74.4886 248.204 74.2783 248.341 74.0934C248.479 73.9085 248.651 73.7527 248.849 73.6348C249.046 73.5168 249.265 73.4391 249.492 73.4061C250.448 73.2671 252.876 74.0145 252.092 74.582C251.878 74.7369 250.504 75.7266 249.993 76.8847Z" fill="#317DE5"/>
<path d="M241.493 89.8453L243.548 96.5766C243.763 97.7424 244.378 98.7957 245.286 99.5538C246.193 100.312 247.336 100.727 248.517 100.727H263.057C264.255 100.731 265.416 100.305 266.33 99.5256C267.244 98.7464 267.851 97.6653 268.043 96.4766L268.047 96.4545L269.868 89.7533C269.978 89.0752 269.94 88.3813 269.756 87.7195C269.572 87.0578 269.248 86.4441 268.805 85.9208C268.362 85.3975 267.811 84.9772 267.19 84.689C266.569 84.4007 265.894 84.2515 265.21 84.2515H246.135C245.444 84.2515 244.76 84.4042 244.134 84.6988C243.508 84.9934 242.953 85.4228 242.511 85.9565C242.068 86.4902 241.747 87.1152 241.571 87.7872C241.395 88.4592 241.369 89.1618 241.493 89.8453V89.8453Z" fill="#E6E6E6"/>
<path d="M289.091 38.7877C289.091 38.7877 297.124 37.744 299.571 38.7274C300.442 39.0773 301.312 42.2903 302.945 43.2473C302.975 43.2646 303.004 43.2817 303.034 43.2987C304.557 44.1682 305.813 45.442 306.664 46.9806C307.514 48.5192 307.928 50.2633 307.858 52.022C307.462 59.9353 308.067 67.8671 309.658 75.6274C309.774 76.2024 309.896 76.7847 310.024 77.3743C310.175 78.0671 310.334 78.7708 310.503 79.4854C310.817 80.8186 311.165 82.1936 311.545 83.6106C311.743 84.3484 310.576 86.249 310.793 87.0124C310.938 87.525 311.088 88.0436 311.243 88.5682C311.707 90.1437 313.585 90.6244 314.132 92.3178C314.138 92.8593 314.006 93.3934 313.748 93.869C313.49 94.3445 313.115 94.7456 312.659 95.0338C312.202 95.322 311.68 95.4877 311.142 95.515C310.603 95.5422 310.067 95.4302 309.584 95.1896L281.199 92.9662L283.9 88.7601L282.068 86.2292L283.442 85.3089L284.129 82.778L281.957 74.2528L278.845 67.0865C277.771 64.6148 277.627 61.8358 278.439 59.2654C279.251 56.695 280.963 54.5079 283.259 53.1099V53.1099L286.823 43.6239L289.091 38.7877Z" fill="#317DE5"/>
<path d="M268.417 97.2269C268.623 96.5886 268.967 96.0036 269.423 95.5131C269.878 95.0225 270.436 94.6384 271.056 94.3876C271.675 94.1369 272.342 94.0258 273.009 94.062C273.676 94.0982 274.327 94.2809 274.916 94.5972L286.842 83.5251L288.212 91.8901L276.677 101.122C276.082 102.081 275.158 102.788 274.08 103.108C273.001 103.428 271.843 103.34 270.825 102.86C269.807 102.38 268.999 101.541 268.555 100.503C268.112 99.4649 268.062 98.2992 268.417 97.2269H268.417Z" fill="#FFB6B6"/>
<path d="M287.317 93.1656L304.742 80.2471L304.8 80.2478C304.78 80.0081 302.785 56.2026 301.558 51.2357C300.847 48.2273 299.133 45.5538 296.7 43.659L296.638 43.6157L296.561 43.6192C295.007 43.6968 293.526 44.3042 292.361 45.3412C291.196 46.3782 290.418 47.7829 290.155 49.3238C288.924 56.7698 289.432 64.4014 291.64 71.6162L292.9 75.7187L285.046 82.8591L287.317 93.1656Z" fill="#317DE5"/>
<path d="M327.785 40.7441C326.5 42.5737 324.624 43.9004 322.477 44.4991C321.617 44.7561 320.729 44.9075 319.834 44.95C319.723 43.9323 319.458 42.9376 319.048 42.0004C319.09 42.9979 318.952 43.9949 318.64 44.9431C317.295 44.8665 315.98 44.5125 314.777 43.9031C313.595 43.3058 312.568 42.4401 311.777 41.3745C310.986 40.309 310.454 39.073 310.221 37.7646C309.749 34.7044 311.13 31.6996 311.63 28.6441C312.131 25.5886 311.19 21.7186 308.213 20.9156C305.945 20.3036 306.2 20.5682 304.315 21.974C306.275 24.8864 299.033 35.5592 296.07 34.6285C294.394 34.1023 293.321 32.5578 292.975 32.5578C290.646 36.5888 295.032 43.3809 290.612 44.7912L290.976 44.4254C293.644 41.1283 288.067 34.1499 290.736 30.8529C291.48 29.9302 292.272 28.8373 292.052 27.6708C291.844 26.5618 290.092 25.9751 289.579 26.8862C290.502 24.7626 289.139 21.928 286.883 21.3827C284.879 20.8972 284.916 21.4954 282.905 21.7554C282.774 20.8824 282.528 20.0306 282.174 19.2222C282.211 20.0932 282.11 20.9646 281.874 21.8037C281.164 21.7898 280.478 21.5407 279.923 21.0951C278.283 19.7675 278.615 16.9789 280.079 15.4581C281.545 13.9372 283.723 13.3896 285.8 13.0353C286.404 8.81077 298.006 8.37009 299.544 12.5912C300.199 9.43908 304.127 7.80319 307.18 8.78104C310.233 9.75889 312.351 12.6234 313.467 15.6421C314.582 18.6585 314.893 21.905 315.58 25.0479C316.268 28.1908 317.429 31.3913 319.82 33.5333C322.211 35.6731 326.107 36.3818 328.626 34.3938C328.992 35.4442 329.107 36.5666 328.961 37.6699C328.815 38.7731 328.412 39.8263 327.785 40.7441V40.7441Z" fill="#2F2E41"/>
<path d="M91.9098 31.639C91.5171 32.5298 90.0593 31.1099 89.9204 30.1456C89.8538 29.6826 89.9729 29.2119 90.2517 28.8371C90.5305 28.4623 90.946 28.2141 91.4069 28.1471C92.3668 28.0076 94.8034 28.7579 94.0166 29.3275C93.8018 29.483 92.4223 30.4765 91.9098 31.639Z" fill="#317DE5"/>
<path d="M92.6562 36.1332L94.0481 49.705L100.576 51.1433C100.576 51.1433 97.014 35.3529 96.8173 34.8813C97.1618 34.3164 97.3276 33.6598 97.2925 32.9983C97.2575 32.3368 97.0234 31.7015 96.6211 31.1766C96.2189 30.6516 95.6675 30.2617 95.0399 30.0585C94.4123 29.8552 93.7381 29.8481 93.1064 30.0382C92.4747 30.2282 91.9153 30.6064 91.5023 31.1228C91.0892 31.6392 90.8419 32.2694 90.7931 32.93C90.7443 33.5907 90.8963 34.2506 91.229 34.8226C91.5617 35.3946 92.0594 35.8516 92.6562 36.1332V36.1332Z" fill="#FFB6B6"/>
<path d="M76.272 38.2629C73.4154 39.1101 83.886 60.226 98.5001 63.4226C99.4934 63.1187 100.413 62.6099 101.199 61.9287C101.986 61.2476 102.622 60.4091 103.067 59.4668C103.513 58.5245 103.758 57.4992 103.786 56.4565C103.815 55.4137 103.627 54.3764 103.234 53.4109L98.9285 43.2955L92.7607 46.5474L93.1227 51.38L88.2829 45.9584L78.314 41.3981L76.272 38.2629Z" fill="#3F3D56"/>
</g>
<defs>
<clipPath id="clip0_408_28">
<rect width="388" height="153" fill="white"/>
</clipPath>
</defs>
</svg>
