<svg width="50" height="50" viewBox="0 0 50 50" fill="none" xmlns="http://www.w3.org/2000/svg">
    <defs>
        <linearGradient id="paint0_linear_405_93" x1="4.21485" y1="7.43609" x2="47.2565" y2="43.8085" gradientUnits="userSpaceOnUse">
            <stop stop-color="#0496FB"/>
            <stop offset="0.138321" stop-color="#3F72FF"/>
            <stop offset="0.279474" stop-color="#784AFF"/>
            <stop offset="0.4211" stop-color="#B038EE"/>
            <stop offset="0.565567" stop-color="#CD40BE"/>
            <stop offset="0.719807" stop-color="#FF415A"/>
            <stop offset="0.864734" stop-color="#F7941E"/>
            <stop offset="0.944236" stop-color="#FFE800"/>
            <stop offset="1" stop-color="#FFE800"/>
        </linearGradient>
    </defs>
<path fill-rule="evenodd" clip-rule="evenodd" d="M50 25.0001C50 38.8072 38.8069 50 24.9998 50C11.1929 50 0 38.8072 0 25.0001C0 11.193 11.1929 -4.94758e-07 24.9998 -4.94758e-07C38.8069 -4.94758e-07 50 11.193 50 25.0001Z" fill="url(#paint0_linear_405_93)"/>
<path fill-rule="evenodd" clip-rule="evenodd" d="M17.7231 11.8181H32.2773C35.554 11.8181 38.2202 14.4854 38.2202 17.7621V32.2391C38.2202 35.5156 35.554 38.1825 32.2773 38.1825H17.7231C14.4475 38.1825 11.7802 35.5156 11.7802 32.2391V17.7621C11.7802 14.4854 14.4475 11.8181 17.7231 11.8181ZM24.9624 19.2853H25.038C28.1624 19.2853 30.753 21.8759 30.753 25.0002C30.753 28.2007 28.1624 30.7913 25.038 30.7913H24.9624C21.8381 30.7913 19.2475 28.2007 19.2475 25.0002C19.2475 21.8759 21.8381 19.2853 24.9624 19.2853ZM24.9624 16.3144H25.038C29.7623 16.3144 33.725 20.276 33.725 25.0002C33.725 29.8008 29.7623 33.6868 25.038 33.6868H24.9624C20.2381 33.6868 16.3522 29.8008 16.3522 25.0002C16.3522 20.276 20.2381 16.3144 24.9624 16.3144ZM33.5727 14.6377C34.5633 14.6377 35.4017 15.4761 35.4017 16.4667C35.4017 17.4574 34.5633 18.2946 33.5727 18.2946C32.5064 18.2946 31.7437 17.4574 31.7437 16.4667C31.7437 15.4761 32.5064 14.6377 33.5727 14.6377ZM17.6475 9.07513H32.353C37.0773 9.07513 40.9632 12.9611 40.9632 17.6853V32.3153C40.9632 37.0395 37.0773 40.9255 32.353 40.9255H17.6475C12.9232 40.9255 9.03711 37.0395 9.03711 32.3153V17.6853C9.03711 12.9611 12.9232 9.07513 17.6475 9.07513Z" fill="white"/>
</svg>
