<svg width="102" height="59" viewBox="0 0 102 59" fill="none" xmlns="http://www.w3.org/2000/svg">
<path d="M3.93066 40.0513C2.71159 40.0513 2.10205 39.7323 2.10205 39.0942V19.9365C2.10205 19.515 2.19889 19.2131 2.39258 19.0308C2.58626 18.8371 2.89388 18.7402 3.31543 18.7402H13.4668C13.7858 18.7402 14.0137 18.8599 14.1504 19.0991C14.2985 19.3384 14.3726 19.7257 14.3726 20.2612V21.1841C14.3726 21.7196 14.2985 22.1069 14.1504 22.3462C14.0137 22.5854 13.7858 22.7051 13.4668 22.7051H6.78467V27.1484H13.2446C13.5636 27.1484 13.7972 27.2681 13.9453 27.5073C14.0934 27.7466 14.1675 28.1283 14.1675 28.6523V29.5923C14.1675 30.1278 14.0934 30.5208 13.9453 30.7715C13.7972 31.0107 13.5636 31.1304 13.2446 31.1304H6.78467V39.0942C6.78467 39.7323 6.17513 40.0513 4.95605 40.0513H3.93066ZM24.4897 40.2563C21.8237 40.2563 19.8356 39.5443 18.5254 38.1201C17.2152 36.6846 16.5601 34.6965 16.5601 32.1558C16.5601 29.2961 17.2152 27.1997 18.5254 25.8667C19.8356 24.5337 21.6414 23.8672 23.9429 23.8672C25.4696 23.8672 26.7171 24.2147 27.6855 24.9097C28.6654 25.6047 29.3774 26.5389 29.8218 27.7124C30.2775 28.8859 30.5054 30.2132 30.5054 31.6943C30.5054 31.8652 30.4028 32.0931 30.1978 32.3779C30.0041 32.6628 29.7819 32.9191 29.5312 33.147C29.2806 33.3748 29.0869 33.4888 28.9502 33.4888H21.2085C21.311 34.6509 21.6528 35.4769 22.2339 35.9668C22.8263 36.4453 23.6466 36.6846 24.6948 36.6846C25.2645 36.6846 25.7772 36.6219 26.2329 36.4966C26.7 36.3599 27.1956 36.1833 27.7197 35.9668C28.0387 35.8187 28.2552 35.7446 28.3691 35.7446C28.5742 35.7446 28.7964 35.8927 29.0356 36.189C29.2863 36.4738 29.4971 36.8042 29.668 37.1802C29.8503 37.5562 29.9414 37.8467 29.9414 38.0518C29.9414 38.5189 29.6224 38.9176 28.9844 39.248C28.3577 39.5785 27.6115 39.8291 26.7456 40C25.8911 40.1709 25.1392 40.2563 24.4897 40.2563ZM26.1304 30.498C26.1304 29.5638 25.9481 28.8175 25.5835 28.2593C25.2189 27.6896 24.672 27.4048 23.9429 27.4048C22.439 27.4048 21.5275 28.4359 21.2085 30.498H26.1304ZM35 40C34.5785 40 34.2708 39.9032 34.0771 39.7095C33.8835 39.5158 33.7866 39.2082 33.7866 38.7866V19.646C33.7866 19.3156 33.9347 19.0706 34.231 18.9111C34.5272 18.7402 34.9886 18.6548 35.6152 18.6548H36.6406C37.2673 18.6548 37.7287 18.7402 38.0249 18.9111C38.3211 19.0706 38.4692 19.3156 38.4692 19.646V36.0181H45.2368C45.5558 36.0181 45.7837 36.1377 45.9204 36.377C46.0685 36.6162 46.1426 36.9979 46.1426 37.522V38.479C46.1426 39.0145 46.0685 39.4019 45.9204 39.6411C45.7837 39.8804 45.5558 40 45.2368 40H35Z" fill="white"/>
<path d="M73.7764 40.2563C72.2269 40.2563 71.0876 39.8519 70.3584 39.043C69.6406 38.2227 69.2817 37.1403 69.2817 35.7959C69.2817 34.7819 69.4925 33.8704 69.9141 33.0615C70.3356 32.2412 71.1901 31.5519 72.4775 30.9937C73.765 30.4354 75.605 30.1562 77.9976 30.1562V29.1479C77.9976 28.5555 77.8096 28.1169 77.4336 27.832C77.0576 27.5472 76.4595 27.4048 75.6392 27.4048C74.9556 27.4048 74.3688 27.4788 73.8789 27.627C73.389 27.7637 72.8592 27.9517 72.2896 28.1909C71.9933 28.3276 71.811 28.396 71.7427 28.396C71.5376 28.396 71.3097 28.2422 71.0591 27.9346C70.8198 27.627 70.609 27.2738 70.4268 26.875C70.2445 26.4762 70.1533 26.1743 70.1533 25.9692C70.1533 25.616 70.404 25.2799 70.9053 24.9609C71.418 24.6305 72.1187 24.3685 73.0073 24.1748C73.896 23.9697 74.8815 23.8672 75.9639 23.8672C78.2425 23.8672 79.9002 24.3229 80.937 25.2344C81.9738 26.1344 82.4922 27.3706 82.4922 28.9429V34.6338C82.4922 35.5794 82.515 36.3143 82.5605 36.8384C82.6175 37.3625 82.6916 37.8809 82.7827 38.3936C82.8397 38.7012 82.8682 38.9176 82.8682 39.043C82.8682 39.2708 82.6517 39.4588 82.2188 39.6069C81.7972 39.755 81.313 39.8633 80.7661 39.9316C80.2192 40 79.7806 40.0342 79.4502 40.0342C79.097 40.0342 78.8407 39.8861 78.6812 39.5898C78.533 39.2822 78.4134 38.8664 78.3223 38.3423C78.3109 38.2739 78.2995 38.2056 78.2881 38.1372C78.2767 38.0688 78.2596 38.0005 78.2368 37.9321C78.1229 38.1486 77.8779 38.4391 77.502 38.8037C77.1374 39.1683 76.6361 39.5044 75.998 39.812C75.36 40.1082 74.6195 40.2563 73.7764 40.2563ZM75.2632 36.6846C75.8328 36.6846 76.3683 36.508 76.8696 36.1548C77.3709 35.7902 77.7469 35.3288 77.9976 34.7705V33.0957C75.1606 33.0957 73.7422 33.842 73.7422 35.3345C73.7422 35.7332 73.8732 36.0579 74.1353 36.3086C74.4087 36.5592 74.7847 36.6846 75.2632 36.6846ZM91.5498 40.2563C90.4447 40.2563 89.4591 39.9373 88.5933 39.2993C87.7388 38.6499 87.0666 37.71 86.5767 36.4795C86.0981 35.2376 85.8589 33.7565 85.8589 32.0361C85.8589 30.3841 86.1095 28.9429 86.6108 27.7124C87.1121 26.4819 87.8413 25.5363 88.7983 24.8755C89.7668 24.2033 90.9232 23.8672 92.2676 23.8672C93.4753 23.8672 94.5063 24.1805 95.3608 24.8071V18.0737C95.3608 17.4129 95.9704 17.0825 97.1895 17.0825H98.0439C98.6706 17.0825 99.1263 17.168 99.4111 17.3389C99.7074 17.4984 99.8555 17.7433 99.8555 18.0737V34.6338C99.8555 35.5794 99.8783 36.3143 99.9238 36.8384C99.9808 37.3625 100.055 37.8809 100.146 38.3936C100.203 38.7012 100.231 38.9176 100.231 39.043C100.231 39.2708 100.015 39.4588 99.582 39.6069C99.1605 39.755 98.6763 39.8633 98.1294 39.9316C97.5939 40 97.161 40.0342 96.8306 40.0342C96.4774 40.0342 96.2267 39.8975 96.0786 39.624C95.9419 39.3506 95.8166 38.9518 95.7026 38.4277L95.6001 37.9663C95.2355 38.6385 94.6943 39.1911 93.9766 39.624C93.2588 40.0456 92.4499 40.2563 91.5498 40.2563ZM92.8828 36.5649C93.8398 36.5649 94.6659 35.9668 95.3608 34.7705V27.9858C94.6431 27.5985 93.9367 27.4048 93.2417 27.4048C91.3504 27.4048 90.4048 28.9486 90.4048 32.0361C90.4048 35.0553 91.2308 36.5649 92.8828 36.5649Z" fill="white"/>
<path d="M57.5 21C52.2533 21 48 25.2533 48 30.5C48 35.7467 52.2533 40 57.5 40C62.7467 40 67 35.7467 67 30.5C67 25.2533 62.7467 21 57.5 21ZM57.5 37.9348C53.3933 37.9348 50.0652 34.6056 50.0652 30.5C50.0652 26.3944 53.3933 23.0652 57.5 23.0652C61.6067 23.0652 64.9348 26.3944 64.9348 30.5C64.9348 34.6056 61.6067 37.9348 57.5 37.9348ZM59.3587 26.5245H55.6413V30.7478H53.3179L57.5 34.6821L61.6821 30.7478H59.3587L59.3587 26.5245Z" fill="#6D0FA6"/>
</svg>
