<svg width="50" height="50" viewBox="0 0 50 50" fill="none" xmlns="http://www.w3.org/2000/svg">
<path fill-rule="evenodd" clip-rule="evenodd" d="M50 24.9999C50 38.807 38.8071 50 24.9999 50C11.1929 50 0 38.807 0 24.9999C0 11.1928 11.1929 -1.73559e-06 24.9999 -1.73559e-06C38.8071 -1.73559e-06 50 11.1928 50 24.9999" fill="#FE0000"/>
<path fill-rule="evenodd" clip-rule="evenodd" d="M15.8209 14.4225C18.8144 14.1831 22.3467 14.0634 25.0407 14.0634C27.7349 14.0634 31.2073 14.1831 34.2606 14.4225C37.7929 14.722 39.589 15.3207 40.068 18.8528C40.3075 20.4693 40.4272 22.6845 40.4272 24.9598C40.4272 27.2346 40.3075 29.5095 40.068 31.0661C39.589 34.6585 37.7929 35.1966 34.2606 35.4968C31.2073 35.7959 27.7349 35.856 25.0407 35.856C22.3467 35.856 18.8144 35.7959 15.8209 35.4968C12.2886 35.1966 10.4326 34.6585 9.95372 31.0661C9.77405 29.5095 9.6543 27.2346 9.6543 24.9598C9.6543 22.6845 9.77405 20.4693 9.95372 18.8528C10.4326 15.3207 12.2886 14.722 15.8209 14.4225Z" fill="white"/>
<path fill-rule="evenodd" clip-rule="evenodd" d="M21.9277 20.3494L29.9503 24.9596L21.9277 29.6294V20.3494Z" fill="#FE0000"/>
</svg>
